Coordinates
version=1
nRows=16
nColumns=38
inDegrees=no

Units are S.I. units (second, meters, Newtons, ...)
If the header above contains a line with 'inDegrees', this indicates whether rotational values are in degrees (yes) or radians (no).

endheader
time	pelvis_tilt	pelvis_list	pelvis_rotation	pelvis_tx	pelvis_ty	pelvis_tz	hip_flexion_r	hip_adduction_r	hip_rotation_r	knee_angle_r	ankle_angle_r	subtalar_angle_r	mtp_angle_r	hip_flexion_l	hip_adduction_l	hip_rotation_l	knee_angle_l	ankle_angle_l	subtalar_angle_l	mtp_angle_l	lumbar_extension	lumbar_bending	lumbar_rotation	arm_flex_r	arm_add_r	arm_rot_r	elbow_flex_r	pro_sup_r	wrist_flex_r	wrist_dev_r	arm_flex_l	arm_add_l	arm_rot_l	elbow_flex_l	pro_sup_l	wrist_flex_l	wrist_dev_l
1.775	0.0102095	0.0036658	-0.0768506	1.07908	0.943823	-0.324089	0.156141	0.10352	0.115864	-0.857009	0.556764	0.0584262	0.000246273	0.640041	0.00950817	-0.0685989	-1.93853	-0.00878139	0.00597459	0.00053478	-0.28199	0.0333786	0.122869	-0.359557	-0.131643	-0.159149	1.50404	1.27909	0.0308973	-0.0461841	-0.723354	-0.145771	-0.0892249	1.7733	1.68914	0.0497249	-0.057201
1.78333	0.00461636	0.0151179	-0.073965	1.07947	0.94843	-0.324454	0.117554	0.0833487	0.115179	-0.82176	0.528881	0.0584262	0.000246273	0.673642	0.0169148	-0.0703889	-1.898	0.000106074	0.00597459	0.00053478	-0.272242	0.0192212	0.136106	-0.354512	-0.13014	-0.165549	1.54445	1.29683	0.0308973	-0.0461841	-0.741051	-0.143275	-0.105454	1.78465	1.68689	0.0497249	-0.057201
1.79167	-0.00130939	0.028269	-0.070144	1.08029	0.953733	-0.324922	0.0789967	0.0609224	0.111351	-0.783758	0.490969	0.0584262	0.000246273	0.703055	0.0276741	-0.0724563	-1.84915	0.00802673	0.00597459	0.00053478	-0.261327	0.00339514	0.147089	-0.352301	-0.129607	-0.170977	1.58507	1.31873	0.0308973	-0.0461841	-0.759754	-0.141539	-0.122012	1.79968	1.68612	0.0497249	-0.057201
1.8	-0.00738591	0.0428953	-0.065151	1.08151	0.959616	-0.325516	0.04083	0.0366374	0.10378	-0.743866	0.442992	0.0584262	0.000246273	0.727871	0.0415418	-0.0746919	-1.7924	0.0146088	0.00597459	0.00053478	-0.249706	-0.0137919	0.155595	-0.352456	-0.130013	-0.175129	1.62492	1.3442	0.0308973	-0.0461841	-0.778865	-0.140547	-0.138343	1.81711	1.68706	0.0497249	-0.057201
1.80833	-0.0134853	0.0586415	-0.0588354	1.08307	0.965939	-0.326252	0.00348178	0.011069	0.0922831	-0.703082	0.385488	0.0584262	0.000246273	0.74783	0.0579984	-0.0770195	-1.72815	0.0193903	0.00597459	0.00053478	-0.237803	-0.0319232	0.161557	-0.354548	-0.131273	-0.177866	1.6633	1.37204	0.0308973	-0.0461841	-0.797866	-0.140231	-0.153946	1.8358	1.6895	0.0497249	-0.057201
1.81667	-0.0195679	0.0750054	-0.0511956	1.08488	0.972547	-0.327132	-0.03249	-0.0150037	0.0772397	-0.66258	0.31966	0.0584262	0.000246273	0.762847	0.0762408	-0.0793808	-1.65685	0.0218675	0.00597459	0.00053478	-0.225931	-0.0504747	0.165105	-0.358192	-0.133272	-0.179157	1.69975	1.40063	0.0308973	-0.0461841	-0.816356	-0.140472	-0.168439	1.85485	1.69288	0.0497249	-0.057201
1.825	-0.025679	0.0913298	-0.0424232	1.08687	0.979273	-0.328133	-0.0663928	-0.0405887	0.0596586	-0.623723	0.247386	0.0584262	0.000246273	0.773013	0.0952156	-0.0816873	-1.57898	0.021577	0.00597459	0.00053478	-0.214268	-0.0688114	0.166593	-0.363041	-0.135868	-0.179053	1.73398	1.42822	0.0308973	-0.0461841	-0.834063	-0.141124	-0.18158	1.87363	1.69647	0.0497249	-0.057201
1.83333	-0.0319525	0.106824	-0.0329166	1.08893	0.985943	-0.329203	-0.0974453	-0.0645013	0.0411386	-0.588024	0.171145	0.0584262	0.000246273	0.778568	0.113696	-0.0837607	-1.49513	0.0182023	0.00597459	0.00053478	-0.20287	-0.08619	0.166595	-0.368774	-0.138901	-0.177661	1.76578	1.45311	0.0308973	-0.0461841	-0.850828	-0.142025	-0.193269	1.89172	1.69955	0.0497249	-0.057201
1.84167	-0.0385046	0.12058	-0.0232359	1.09098	0.992392	-0.330263	-0.12488	-0.0854767	0.0236982	-0.557046	0.0938696	0.0584262	0.000246273	0.779841	0.13044	-0.0853056	-1.40607	0.0116819	0.00597459	0.00053478	-0.191728	-0.101838	0.165829	-0.375096	-0.142195	-0.17513	1.79495	1.4739	0.0308973	-0.0461841	-0.866589	-0.143016	-0.203524	1.90894	1.70145	0.0497249	-0.057201
1.85	-0.0453391	0.131723	-0.0140218	1.09295	0.998468	-0.331213	-0.148092	-0.102303	0.00949056	-0.532276	0.0187373	0.0584262	0.000246273	0.777172	0.14435	-0.0859274	-1.31271	0.00228737	0.00597459	0.00053478	-0.180858	-0.11503	0.165034	-0.381728	-0.14556	-0.171653	1.82133	1.48975	0.0308973	-0.0461841	-0.881347	-0.14395	-0.212453	1.92526	1.70167	0.0497249	-0.057201
1.85833	-0.0523043	0.139539	-0.00589092	1.09479	1.00405	-0.331952	-0.166755	-0.11398	0.000471025	-0.514994	-0.051067	0.0584262	0.000246273	0.770864	0.154614	-0.0852213	-1.21619	-0.00936645	0.00597459	0.00053478	-0.170382	-0.125196	0.164847	-0.388421	-0.148799	-0.167459	1.84471	1.50044	0.0308973	-0.0461841	-0.895139	-0.144701	-0.22022	1.94076	1.69991	0.0497249	-0.057201
1.86667	-0.0590794	0.143598	0.000669831	1.0965	1.00905	-0.332395	-0.180881	-0.119856	-0.001925	-0.506184	-0.1126	0.0584262	0.000246273	0.761162	0.160792	-0.0829026	-1.11785	-0.0223983	0.00597459	0.00053478	-0.160567	-0.132018	0.165678	-0.394976	-0.151724	-0.162805	1.86492	1.50631	0.0308973	-0.0461841	-0.908012	-0.14517	-0.227015	1.95563	1.69607	0.0497249	-0.057201
1.875	-0.0652234	0.143827	0.00538119	1.09807	1.01341	-0.332485	-0.190808	-0.119722	0.00297006	-0.50648	-0.16341	0.0584262	0.000246273	0.748273	0.162846	-0.0789214	-1.01921	-0.0358208	0.00597459	0.00053478	-0.151819	-0.135491	0.16765	-0.401257	-0.154169	-0.157955	1.88179	1.5081	0.0308973	-0.0461841	-0.920001	-0.145292	-0.233019	1.97006	1.69035	0.0497249	-0.057201
1.88333	-0.0702488	0.140531	0.00821325	1.09951	1.0171	-0.332208	-0.197099	-0.113833	0.0149152	-0.51618	-0.201745	0.0584262	0.000246273	0.73241	0.161121	-0.0734893	-0.921975	-0.0487477	0.00597459	0.00053478	-0.144631	-0.135923	0.170588	-0.407213	-0.156003	-0.153161	1.8952	1.50674	0.0308973	-0.0461841	-0.931107	-0.145052	-0.238386	1.98423	1.68319	0.0497249	-0.057201
1.89167	-0.0736936	0.134337	0.0093816	1.10083	1.02011	-0.331594	-0.200409	-0.102879	0.0327427	-0.53528	-0.226726	0.0584262	0.000246273	0.713839	0.156295	-0.0669989	-0.827959	-0.0605977	0.00597459	0.00053478	-0.139509	-0.133878	0.174068	-0.412883	-0.157148	-0.148641	1.90506	1.50322	0.0308973	-0.0461841	-0.94128	-0.144485	-0.243218	1.99828	1.67526	0.0497249	-0.057201
1.9	-0.0751765	0.126116	0.00929142	1.10204	1.02246	-0.330711	-0.201347	-0.0879451	0.0544877	-0.563547	-0.238458	0.0584262	0.000246273	0.692893	0.149321	-0.0599061	-0.739015	-0.071232	0.00597459	0.00053478	-0.13691	-0.130123	0.177497	-0.41838	-0.15758	-0.144562	1.91134	1.49842	0.0308973	-0.0461841	-0.950415	-0.143688	-0.247565	2.01226	1.66725	0.0497249	-0.057201
